<?xml version="1.0" encoding="UTF-8"?>
<svg id="Layer_1" xmlns="http://www.w3.org/2000/svg" viewBox="0 0 50 50">
  <path d="M19.6,23.7c1.7,1.7,2.9,3.8,3.6,6.2v-15.4h-3.6v9.2Z"/>
  <rect x="26.8" y="14.5" width="3.6" height="31.6"/>
  <path d="M19.6,46.1h3.6v-8.6c-.7,2.4-1.9,4.5-3.6,6.2v2.4Z"/>
  <path d="M14.5,7.2c-.7.2-1.4.4-2.1.7v11.9c1.3.3,2.5.7,3.6,1.3h0s0-12.3,0-12.3c-.3-.6-.5-1.2-.6-1.8l-.9.3Z"/>
  <path d="M34.7,7c-.1.6-.4,1.2-.6,1.8v37.4h3.6V7.9c-.7-.3-1.3-.5-2-.7l-.9-.3Z"/>
  <path d="M44.2,8.2c-2.5-2-5-3.3-7.7-4.1h0c-.1,0-.3,0-.4-.1-.6-.2-1.4-.4-2-.4s-1.4.3-1.8.8l-3.7-3.7h-6.4l-4,4c-.4-.7-1.1-1-2-1s-1.6.3-2.4.5h0c-3,.7-5.6,2.5-7.8,4l-.3.2v41h38.8V8.4l-.3-.2ZM7,26.7l1.6-.4v-.2c.4-.9.8-1.7,1.3-2.6,1.2-.2,2.5-.2,3.7,0,.4.5.8,1.1,1.1,1.7-2.7,2.1-5.2,4.4-7.6,6.8v-5.2ZM7.5,22h0c.6.2,1.1.6,1.5,1.1-.4.8-.8,1.6-1.1,2.4l-.9.2v-3.6c.2,0,.3,0,.5-.1h0ZM9,21.9h0c1.5,0,3,.2,4.4.6-1.2-.1-2.4-.1-3.6,0-.2-.3-.5-.5-.7-.7ZM20.7,29.8h0s0,0,0,0c.5,1.4.7,2.9.6,4.4-.2-.3-.5-.5-.7-.7.2-1.2.2-2.5,0-3.7h0ZM21.2,35.7c-.2,1.3-.7,2.6-1.4,3.8-.8-.8-1.7-1.5-2.7-2l.6-2.2c.8-.3,1.6-.7,2.4-1.1h0c.5.4.9.9,1.1,1.5ZM10,44.3c.4-.8.8-1.6,1.1-2.4l2.2-.6s0,0,0,0h0,0c.6,1,1.3,1.9,2.1,2.7-1.2.7-2.5,1.1-3.8,1.4-.6-.2-1.1-.6-1.5-1.1ZM10,45.6c-1,0-2,0-3-.3v-.3c.8,0,1.5,0,2.3-.2h0c.2.3.5.5.7.7ZM14.1,41c.5-.4,1-.8,1.5-1.2.4-.4.8-.9,1.2-1.4,0,0,0,0,0,0h0s0,0,0,0c.6.4,1.8,1.2,2.6,2.1-.8,1.3-1.9,2.3-3.2,3.2-.9-.7-1.7-2-2-2.6ZM18.3,27.8c-.8-1.1-1.7-2.1-2.9-2.9-.3-.8-.8-1.5-1.3-2.1h0s0,0,0,0c2.9,1.2,5.1,3.5,6.3,6.3-.6-.6-1.3-1-2.1-1.3ZM8.1,35.8l.6-.6c.2.1.4.3.6.4l.5-.7c-.2,0-.3-.2-.4-.3l1-1c.1.1.2.3.3.4l.7-.4c-.1-.2-.3-.4-.4-.6l.6-.6c.1.1.2.3.3.4l.7-.5c-.1-.2-.3-.4-.4-.6l.6-.6c.1.1.2.3.3.4l.7-.5c-.1-.2-.3-.4-.4-.6l.7-.7-.6-.6-.7.7c-.2-.2-.4-.3-.6-.4l-.5.7c.1.1.3.2.4.3l-.6.6c-.2-.2-.4-.3-.6-.4l-.5.7c.1,0,.3.2.4.3l-.6.6c-.2-.2-.4-.3-.6-.4l-.5.7c.1.1.3.2.4.3l-1,1c-.1-.1-.2-.3-.3-.4l-.7.5c.1.2.3.4.4.6l-.6.6c-.1-.1-.2-.3-.3-.4h-.1c0,0,0-1.6,0-1.6,2.6-2.6,5.3-5.1,8.2-7.4,0,0,0,0,0,0h0s0,0,0,0c.9.6,1.7,1.4,2.3,2.3-2,2.6-4.2,5.1-6.5,7.4-1.3,1.3-2.6,2.5-4,3.7v-2.3l.5-.5c.2.2.4.3.6.4l.4-.7c-.2,0-.3-.2-.4-.3ZM7,40.3c1.6-1.4,3.1-2.8,4.6-4.3,2.3-2.3,4.5-4.8,6.6-7.4.6.3,1.2.7,1.7,1.1h0c.2,1.2.1,2.4,0,3.6-.8.5-1.7.9-2.6,1.2h-.2c0,0-.7,3-.7,3-.4.6-.8,1.1-1.3,1.6-.5.5-1,.9-1.6,1.3l-2.9.7v.2c-.4.9-.8,1.7-1.3,2.6-.7.1-1.5.2-2.2.2v-3.8ZM43,48H7v-1.7c4,.8,8.4-.3,11.5-3.5,5-5,5-13,0-18-3.1-3.1-7.5-4.3-11.5-3.5v-12.1s0,0,0,0c.4-.3.9-.7,1.3-1,1.3-.9,2.6-1.6,4.1-2.2.5-.2,1-.4,1.6-.5.7-.2,1.3-.4,2-.5.2,0,.4,0,.6.2.2.1.3.4.4.6,0,.5.2,1,.3,1.5l5.2-5.2h5.3l4.9,4.9c.1-.4.2-.8.3-1.2,0-.2.2-.5.4-.6.1-.1.3-.2.5-.2h.1c.7.1,1.4.3,2.1.5.5.1,1,.3,1.6.5,1.5.5,2.8,1.3,4.1,2.2.4.3.9.6,1.3,1v38.9Z"/>
  <path d="M23.8,5l-4.9,4.9c.2.3.5.5.7.7,1,.9,2.3,1.5,3.6,1.8,1.2.3,2.4.3,3.6,0,1.3-.3,2.6-.9,3.6-1.8h0c.3-.3.6-.6.9-1l-4.7-4.7h-2.8Z"/>
</svg>